<?xml version="1.0" standalone="no"?>
<!DOCTYPE svg PUBLIC "-//W3C//DTD SVG 20010904//EN"
 "http://www.w3.org/TR/2001/REC-SVG-20010904/DTD/svg10.dtd">
<svg version="1.0" xmlns="http://www.w3.org/2000/svg"
 width="900.000000pt" height="900.000000pt" viewBox="0 0 900.000000 900.000000"
 preserveAspectRatio="xMidYMid meet">

<g transform="translate(0.000000,900.000000) scale(0.100000,-0.100000)"
fill="#000000" stroke="none">
<path d="M0 4500 l0 -4500 4500 0 4500 0 0 4500 0 4500 -4500 0 -4500 0 0
-4500z m3165 2089 c63 -11 189 -45 415 -109 74 -21 218 -61 320 -90 102 -28
257 -72 345 -96 88 -25 182 -52 209 -59 55 -15 48 -17 351 70 83 23 227 64
320 90 94 26 231 65 305 86 428 120 442 123 635 122 343 -1 653 -130 903 -376
189 -187 322 -440 367 -696 23 -127 22 -1708 0 -1837 -73 -418 -370 -797 -756
-965 -91 -39 -114 -47 -386 -123 -90 -25 -234 -66 -320 -90 -87 -25 -241 -68
-343 -96 -102 -29 -246 -69 -320 -90 -74 -21 -227 -64 -340 -95 -113 -32 -241
-68 -284 -81 l-79 -23 -126 35 c-120 34 -234 66 -526 149 -71 21 -184 52 -250
70 -66 18 -203 56 -305 85 -190 54 -341 96 -605 170 -178 49 -311 103 -414
167 -365 225 -586 588 -622 1020 -7 82 -9 397 -6 883 4 717 5 759 24 845 64
278 180 491 369 677 216 212 463 326 799 372 50 7 256 -2 320 -15z"/>
<path d="M4067 5251 c-65 -33 -102 -67 -132 -122 l-30 -54 0 -710 0 -710 22
-41 c54 -101 137 -155 240 -155 73 -1 93 7 269 109 199 114 433 249 549 317
55 32 129 75 165 95 299 169 321 184 360 253 37 65 46 136 26 200 -31 102 -62
130 -296 264 -58 34 -204 118 -325 188 -121 70 -267 154 -325 188 -58 33 -125
72 -150 88 -25 15 -80 45 -123 68 -69 36 -87 41 -146 41 -46 0 -78 -6 -104
-19z"/>
</g>
</svg>
